<svg width="41" height="49" viewBox="0 0 41 49" fill="none" xmlns="http://www.w3.org/2000/svg">
<rect y="1" width="40" height="48" fill="#19074C"/>
<path d="M29.5 1H40V14L29.5 1Z" fill="white" stroke="white"/>
<path d="M31 12.5C31 12.5 28.5 2.12937 28.5 1.49997C28.5 0.892077 38.2945 13.585 39.4145 14.4533C39.5123 14.4834 39.5455 14.5 39.5 14.5C39.4829 14.5 39.4541 14.4841 39.4145 14.4533C38.4369 14.1526 31 12.5 31 12.5Z" fill="#A3A3A3"/>
<path d="M28.5 1.49997C28.5 2.12937 31 12.5 31 12.5C31 12.5 40 14.5 39.5 14.5C39 14.5 28.5 0.870564 28.5 1.49997Z" stroke="#A3A3A3"/>
</svg>
